<svg xmlns="http://www.w3.org/2000/svg" viewBox="0 0 720 400" font-family="'Cascadia Code', 'Consolas', ui-monospace, monospace">
  <defs>
    <linearGradient id="tbar" x1="0" y1="0" x2="0" y2="1">
      <stop offset="0%" stop-color="#232a3b"/>
      <stop offset="100%" stop-color="#1b2130"/>
    </linearGradient>
    <filter id="win" x="-10%" y="-10%" width="120%" height="120%">
      <feDropShadow dx="0" dy="6" stdDeviation="14" flood-color="#000" flood-opacity="0.45"/>
    </filter>
  </defs>

  <!-- window -->
  <g filter="url(#win)">
    <rect x="8" y="8" width="704" height="384" rx="12" fill="#0b0f18"/>
  </g>
  <rect x="8" y="8" width="704" height="384" rx="12" fill="none" stroke="#232a3b"/>

  <!-- title bar -->
  <path d="M8,20 a12,12 0 0 1 12,-12 h680 a12,12 0 0 1 12,12 v18 h-704 z" fill="url(#tbar)"/>
  <circle cx="30" cy="24" r="6" fill="#ff5f57"/>
  <circle cx="50" cy="24" r="6" fill="#febc2e"/>
  <circle cx="70" cy="24" r="6" fill="#28c840"/>
  <text x="360" y="28" text-anchor="middle" font-size="12" fill="#8b96ab">SingPilot — manage.bat</text>

  <!-- brand line -->
  <text x="28" y="72" font-size="16" font-weight="700" fill="#e8edf6">SingPilot</text>
  <text x="118" y="72" font-size="11.5" fill="#5f6b82">~ AI-native control plane for sing-box</text>
  <line x1="28" y1="84" x2="692" y2="84" stroke="#1e2636" stroke-width="1"/>

  <!-- status block -->
  <g font-size="12.5">
    <text x="28"  y="110" fill="#6b7688">sing-box.exe</text>
    <text x="168" y="110" fill="#4ade80">OK  v1.12.0</text>
    <text x="28"  y="132" fill="#6b7688">config.json</text>
    <text x="168" y="132" fill="#4ade80">OK  ·  TUN · ClashAPI · Routing · 43 nodes</text>
    <text x="28"  y="154" fill="#6b7688">status</text>
    <text x="168" y="154" fill="#4ade80">RUNNING  ·  PID 30012 · 49.9 MB · up 2h 14m</text>
    <text x="28"  y="176" fill="#6b7688">services</text>
    <text x="168" y="176" fill="#c4b5fd">Watchdog 3/3  ·  Autostart ON</text>
  </g>
  <line x1="28" y1="192" x2="692" y2="192" stroke="#1e2636" stroke-width="1"/>

  <!-- menu two columns -->
  <g font-size="12.5" fill="#dbe4f0">
    <text x="40"  y="220"><tspan fill="#38bdf8">[1]</tspan>  Start Proxy</text>
    <text x="40"  y="244"><tspan fill="#38bdf8">[2]</tspan>  Stop Proxy</text>
    <text x="40"  y="268"><tspan fill="#38bdf8">[3]</tspan>  View Status</text>
    <text x="40"  y="292"><tspan fill="#38bdf8">[4]</tspan>  Switch Nodes</text>
    <text x="40"  y="316"><tspan fill="#38bdf8">[5]</tspan>  Update Config</text>
    <text x="40"  y="340"><tspan fill="#a78bfa">[6]</tspan>  Install Watchdog</text>

    <text x="392" y="220"><tspan fill="#a78bfa">[7]</tspan>&#160; Enable Autostart</text>
    <text x="392" y="244"><tspan fill="#a78bfa">[8]</tspan>&#160; Setup Wizard</text>
    <text x="392" y="268"><tspan fill="#34d399">[9]</tspan>&#160; System Proxy</text>
    <text x="392" y="292"><tspan fill="#34d399">[10]</tspan> DNS Tools</text>
    <text x="392" y="316"><tspan fill="#34d399">[11]</tspan> Log Viewer</text>
    <text x="392" y="340"><tspan fill="#fb7185">[0]</tspan>&#160; Exit</text>
  </g>

  <!-- prompt -->
  <text x="28" y="374" font-size="12.5" fill="#6b7688">Select [0-11]<tspan fill="#38bdf8"> ›</tspan></text>
  <rect x="140" y="364" width="8" height="14" rx="1" fill="#38bdf8">
    <animate attributeName="opacity" values="1;1;0;0" dur="1.1s" repeatCount="indefinite"/>
  </rect>
</svg>
